<mxfile host="www.draw.io" modified="2020-01-20T02:56:47.680Z" agent="Mozilla/5.0 (Windows NT 10.0; Win64; x64) AppleWebKit/537.36 (KHTML, like Gecko) Chrome/79.0.3945.117 Safari/537.36" etag="yRmLcF-2xPqFqdWd_POn" version="12.5.5" type="github">
  <diagram id="6a731a19-8d31-9384-78a2-239565b7b9f0" name="Page-1">
    <mxGraphModel dx="1185" dy="635" grid="1" gridSize="10" guides="1" tooltips="1" connect="1" arrows="1" fold="1" page="1" pageScale="1" pageWidth="1169" pageHeight="827" background="#ffffff" math="0" shadow="0">
      <root>
        <mxCell id="0"/>
        <mxCell id="1" parent="0"/>
        <mxCell id="X6zT1H7bfcrQoG9dF4VW-62" style="edgeStyle=orthogonalEdgeStyle;rounded=0;orthogonalLoop=1;jettySize=auto;html=1;exitX=0.5;exitY=1;exitDx=0;exitDy=0;entryX=0.5;entryY=0;entryDx=0;entryDy=0;" edge="1" parent="1" source="X6zT1H7bfcrQoG9dF4VW-55" target="X6zT1H7bfcrQoG9dF4VW-61">
          <mxGeometry relative="1" as="geometry"/>
        </mxCell>
        <mxCell id="X6zT1H7bfcrQoG9dF4VW-55" value="开始" style="rounded=1;whiteSpace=wrap;html=1;fillColor=#d5e8d4;strokeColor=#82b366;" vertex="1" parent="1">
          <mxGeometry x="524" y="40" width="120" height="60" as="geometry"/>
        </mxCell>
        <mxCell id="X6zT1H7bfcrQoG9dF4VW-76" style="edgeStyle=orthogonalEdgeStyle;rounded=0;orthogonalLoop=1;jettySize=auto;html=1;entryX=0.5;entryY=0;entryDx=0;entryDy=0;entryPerimeter=0;" edge="1" parent="1" source="X6zT1H7bfcrQoG9dF4VW-61" target="X6zT1H7bfcrQoG9dF4VW-65">
          <mxGeometry relative="1" as="geometry"/>
        </mxCell>
        <mxCell id="X6zT1H7bfcrQoG9dF4VW-61" value="获取配置方案" style="rounded=0;whiteSpace=wrap;html=1;" vertex="1" parent="1">
          <mxGeometry x="524" y="170" width="120" height="60" as="geometry"/>
        </mxCell>
        <mxCell id="X6zT1H7bfcrQoG9dF4VW-67" style="edgeStyle=orthogonalEdgeStyle;rounded=0;orthogonalLoop=1;jettySize=auto;html=1;entryX=0;entryY=0.5;entryDx=0;entryDy=0;" edge="1" parent="1" source="X6zT1H7bfcrQoG9dF4VW-65" target="X6zT1H7bfcrQoG9dF4VW-66">
          <mxGeometry relative="1" as="geometry"/>
        </mxCell>
        <mxCell id="X6zT1H7bfcrQoG9dF4VW-77" style="edgeStyle=orthogonalEdgeStyle;rounded=0;orthogonalLoop=1;jettySize=auto;html=1;exitX=0.5;exitY=1;exitDx=0;exitDy=0;exitPerimeter=0;entryX=0.5;entryY=0;entryDx=0;entryDy=0;entryPerimeter=0;" edge="1" parent="1" source="X6zT1H7bfcrQoG9dF4VW-65" target="X6zT1H7bfcrQoG9dF4VW-68">
          <mxGeometry relative="1" as="geometry"/>
        </mxCell>
        <mxCell id="X6zT1H7bfcrQoG9dF4VW-65" value="配置方案为空" style="strokeWidth=2;html=1;shape=mxgraph.flowchart.decision;whiteSpace=wrap;" vertex="1" parent="1">
          <mxGeometry x="506" y="300" width="156" height="90" as="geometry"/>
        </mxCell>
        <mxCell id="X6zT1H7bfcrQoG9dF4VW-66" value="结束" style="rounded=1;whiteSpace=wrap;html=1;fillColor=#f8cecc;strokeColor=#b85450;" vertex="1" parent="1">
          <mxGeometry x="760" y="315" width="120" height="60" as="geometry"/>
        </mxCell>
        <mxCell id="X6zT1H7bfcrQoG9dF4VW-74" style="edgeStyle=orthogonalEdgeStyle;rounded=0;orthogonalLoop=1;jettySize=auto;html=1;entryX=0;entryY=0.5;entryDx=0;entryDy=0;" edge="1" parent="1" source="X6zT1H7bfcrQoG9dF4VW-68" target="X6zT1H7bfcrQoG9dF4VW-73">
          <mxGeometry relative="1" as="geometry"/>
        </mxCell>
        <mxCell id="X6zT1H7bfcrQoG9dF4VW-68" value="是否存在未审批的报备项" style="strokeWidth=2;html=1;shape=mxgraph.flowchart.decision;whiteSpace=wrap;" vertex="1" parent="1">
          <mxGeometry x="506" y="460" width="156" height="90" as="geometry"/>
        </mxCell>
        <mxCell id="X6zT1H7bfcrQoG9dF4VW-72" value="是" style="text;html=1;align=center;verticalAlign=middle;resizable=0;points=[];autosize=1;" vertex="1" parent="1">
          <mxGeometry x="695" y="320" width="30" height="20" as="geometry"/>
        </mxCell>
        <mxCell id="X6zT1H7bfcrQoG9dF4VW-73" value="结束" style="rounded=1;whiteSpace=wrap;html=1;fillColor=#f8cecc;strokeColor=#b85450;" vertex="1" parent="1">
          <mxGeometry x="760" y="475" width="120" height="60" as="geometry"/>
        </mxCell>
        <mxCell id="X6zT1H7bfcrQoG9dF4VW-75" value="是" style="text;html=1;align=center;verticalAlign=middle;resizable=0;points=[];autosize=1;" vertex="1" parent="1">
          <mxGeometry x="695" y="480" width="30" height="20" as="geometry"/>
        </mxCell>
        <mxCell id="X6zT1H7bfcrQoG9dF4VW-79" value="否" style="text;html=1;align=center;verticalAlign=middle;resizable=0;points=[];autosize=1;" vertex="1" parent="1">
          <mxGeometry x="580" y="410" width="30" height="20" as="geometry"/>
        </mxCell>
        <mxCell id="X6zT1H7bfcrQoG9dF4VW-83" style="edgeStyle=orthogonalEdgeStyle;rounded=0;orthogonalLoop=1;jettySize=auto;html=1;" edge="1" parent="1" source="X6zT1H7bfcrQoG9dF4VW-81" target="X6zT1H7bfcrQoG9dF4VW-82">
          <mxGeometry relative="1" as="geometry"/>
        </mxCell>
        <mxCell id="X6zT1H7bfcrQoG9dF4VW-81" value="是否存在作废原因" style="strokeWidth=2;html=1;shape=mxgraph.flowchart.decision;whiteSpace=wrap;" vertex="1" parent="1">
          <mxGeometry x="506" y="610" width="156" height="90" as="geometry"/>
        </mxCell>
        <mxCell id="X6zT1H7bfcrQoG9dF4VW-82" value="结束" style="rounded=1;whiteSpace=wrap;html=1;fillColor=#f8cecc;strokeColor=#b85450;" vertex="1" parent="1">
          <mxGeometry x="760" y="625" width="120" height="60" as="geometry"/>
        </mxCell>
        <mxCell id="X6zT1H7bfcrQoG9dF4VW-84" value="否" style="text;html=1;align=center;verticalAlign=middle;resizable=0;points=[];autosize=1;" vertex="1" parent="1">
          <mxGeometry x="695" y="630" width="30" height="20" as="geometry"/>
        </mxCell>
        <mxCell id="X6zT1H7bfcrQoG9dF4VW-90" style="edgeStyle=orthogonalEdgeStyle;rounded=0;orthogonalLoop=1;jettySize=auto;html=1;entryX=0.5;entryY=0;entryDx=0;entryDy=0;" edge="1" parent="1" source="X6zT1H7bfcrQoG9dF4VW-85" target="X6zT1H7bfcrQoG9dF4VW-87">
          <mxGeometry relative="1" as="geometry"/>
        </mxCell>
        <mxCell id="X6zT1H7bfcrQoG9dF4VW-85" value="订单类型属于新标、退标、续标、转标" style="strokeWidth=2;html=1;shape=mxgraph.flowchart.decision;whiteSpace=wrap;" vertex="1" parent="1">
          <mxGeometry x="506" y="760" width="156" height="90" as="geometry"/>
        </mxCell>
        <mxCell id="X6zT1H7bfcrQoG9dF4VW-91" style="edgeStyle=orthogonalEdgeStyle;rounded=0;orthogonalLoop=1;jettySize=auto;html=1;entryX=0.5;entryY=0;entryDx=0;entryDy=0;" edge="1" parent="1" source="X6zT1H7bfcrQoG9dF4VW-87" target="X6zT1H7bfcrQoG9dF4VW-89">
          <mxGeometry relative="1" as="geometry"/>
        </mxCell>
        <mxCell id="X6zT1H7bfcrQoG9dF4VW-87" value="&lt;span style=&quot;white-space: normal&quot;&gt;调用库存作废接口&lt;/span&gt;" style="shape=process;whiteSpace=wrap;html=1;backgroundOutline=1;" vertex="1" parent="1">
          <mxGeometry x="524" y="910" width="120" height="60" as="geometry"/>
        </mxCell>
        <mxCell id="X6zT1H7bfcrQoG9dF4VW-98" style="edgeStyle=orthogonalEdgeStyle;rounded=0;orthogonalLoop=1;jettySize=auto;html=1;entryX=0.5;entryY=0;entryDx=0;entryDy=0;" edge="1" parent="1" source="X6zT1H7bfcrQoG9dF4VW-89" target="X6zT1H7bfcrQoG9dF4VW-97">
          <mxGeometry relative="1" as="geometry"/>
        </mxCell>
        <mxCell id="X6zT1H7bfcrQoG9dF4VW-89" value="&lt;span style=&quot;white-space: normal&quot;&gt;调用库存更新接口&lt;/span&gt;" style="shape=process;whiteSpace=wrap;html=1;backgroundOutline=1;" vertex="1" parent="1">
          <mxGeometry x="524" y="1030" width="120" height="60" as="geometry"/>
        </mxCell>
        <mxCell id="X6zT1H7bfcrQoG9dF4VW-92" value="是" style="text;html=1;align=center;verticalAlign=middle;resizable=0;points=[];autosize=1;" vertex="1" parent="1">
          <mxGeometry x="580" y="870" width="30" height="20" as="geometry"/>
        </mxCell>
        <mxCell id="X6zT1H7bfcrQoG9dF4VW-95" value="" style="endArrow=classic;html=1;exitX=1;exitY=0.5;exitDx=0;exitDy=0;exitPerimeter=0;entryX=1;entryY=0.5;entryDx=0;entryDy=0;" edge="1" parent="1" source="X6zT1H7bfcrQoG9dF4VW-85" target="X6zT1H7bfcrQoG9dF4VW-89">
          <mxGeometry width="50" height="50" relative="1" as="geometry">
            <mxPoint x="510" y="1160" as="sourcePoint"/>
            <mxPoint x="560" y="1110" as="targetPoint"/>
            <Array as="points">
              <mxPoint x="750" y="805"/>
              <mxPoint x="750" y="930"/>
              <mxPoint x="750" y="1060"/>
            </Array>
          </mxGeometry>
        </mxCell>
        <mxCell id="X6zT1H7bfcrQoG9dF4VW-96" value="否" style="text;html=1;align=center;verticalAlign=middle;resizable=0;points=[];autosize=1;" vertex="1" parent="1">
          <mxGeometry x="695" y="780" width="30" height="20" as="geometry"/>
        </mxCell>
        <mxCell id="X6zT1H7bfcrQoG9dF4VW-100" style="edgeStyle=orthogonalEdgeStyle;rounded=0;orthogonalLoop=1;jettySize=auto;html=1;entryX=0.5;entryY=0;entryDx=0;entryDy=0;" edge="1" parent="1" source="X6zT1H7bfcrQoG9dF4VW-97" target="X6zT1H7bfcrQoG9dF4VW-99">
          <mxGeometry relative="1" as="geometry"/>
        </mxCell>
        <mxCell id="X6zT1H7bfcrQoG9dF4VW-97" value="作废拆单" style="shape=process;whiteSpace=wrap;html=1;backgroundOutline=1;" vertex="1" parent="1">
          <mxGeometry x="524" y="1150" width="120" height="60" as="geometry"/>
        </mxCell>
        <mxCell id="X6zT1H7bfcrQoG9dF4VW-99" value="作废协同工单" style="shape=process;whiteSpace=wrap;html=1;backgroundOutline=1;" vertex="1" parent="1">
          <mxGeometry x="524" y="1270" width="120" height="60" as="geometry"/>
        </mxCell>
        <mxCell id="X6zT1H7bfcrQoG9dF4VW-102" value="作废配置方案" style="rounded=0;whiteSpace=wrap;html=1;" vertex="1" parent="1">
          <mxGeometry x="518" y="1630" width="120" height="60" as="geometry"/>
        </mxCell>
        <mxCell id="X6zT1H7bfcrQoG9dF4VW-111" style="edgeStyle=orthogonalEdgeStyle;rounded=0;orthogonalLoop=1;jettySize=auto;html=1;entryX=0.5;entryY=0;entryDx=0;entryDy=0;" edge="1" parent="1" source="X6zT1H7bfcrQoG9dF4VW-103" target="X6zT1H7bfcrQoG9dF4VW-104">
          <mxGeometry relative="1" as="geometry"/>
        </mxCell>
        <mxCell id="X6zT1H7bfcrQoG9dF4VW-112" style="edgeStyle=orthogonalEdgeStyle;rounded=0;orthogonalLoop=1;jettySize=auto;html=1;exitX=1;exitY=0.5;exitDx=0;exitDy=0;exitPerimeter=0;entryX=1;entryY=0.5;entryDx=0;entryDy=0;" edge="1" parent="1" source="X6zT1H7bfcrQoG9dF4VW-103" target="X6zT1H7bfcrQoG9dF4VW-102">
          <mxGeometry relative="1" as="geometry"/>
        </mxCell>
        <mxCell id="X6zT1H7bfcrQoG9dF4VW-103" value="订单状态&amp;gt;=7(待派单)" style="strokeWidth=2;html=1;shape=mxgraph.flowchart.decision;whiteSpace=wrap;" vertex="1" parent="1">
          <mxGeometry x="500" y="1380" width="156" height="90" as="geometry"/>
        </mxCell>
        <mxCell id="X6zT1H7bfcrQoG9dF4VW-104" value="尝试删除jz_air_info信息" style="rounded=0;whiteSpace=wrap;html=1;" vertex="1" parent="1">
          <mxGeometry x="518" y="1520" width="120" height="60" as="geometry"/>
        </mxCell>
        <mxCell id="X6zT1H7bfcrQoG9dF4VW-105" value="作废供应商核量凭证" style="rounded=0;whiteSpace=wrap;html=1;" vertex="1" parent="1">
          <mxGeometry x="518" y="1740" width="120" height="60" as="geometry"/>
        </mxCell>
        <mxCell id="X6zT1H7bfcrQoG9dF4VW-107" value="作废派工单主表记录" style="rounded=0;whiteSpace=wrap;html=1;" vertex="1" parent="1">
          <mxGeometry x="518" y="1850" width="120" height="60" as="geometry"/>
        </mxCell>
        <mxCell id="X6zT1H7bfcrQoG9dF4VW-110" style="edgeStyle=orthogonalEdgeStyle;rounded=0;orthogonalLoop=1;jettySize=auto;html=1;exitX=0.5;exitY=1;exitDx=0;exitDy=0;exitPerimeter=0;" edge="1" parent="1" source="X6zT1H7bfcrQoG9dF4VW-108" target="X6zT1H7bfcrQoG9dF4VW-109">
          <mxGeometry relative="1" as="geometry"/>
        </mxCell>
        <mxCell id="X6zT1H7bfcrQoG9dF4VW-108" value="新标类型" style="strokeWidth=2;html=1;shape=mxgraph.flowchart.decision;whiteSpace=wrap;" vertex="1" parent="1">
          <mxGeometry x="506" y="1960" width="156" height="90" as="geometry"/>
        </mxCell>
        <mxCell id="X6zT1H7bfcrQoG9dF4VW-109" value="作废施工进度" style="rounded=0;whiteSpace=wrap;html=1;" vertex="1" parent="1">
          <mxGeometry x="524" y="2100" width="120" height="60" as="geometry"/>
        </mxCell>
        <mxCell id="X6zT1H7bfcrQoG9dF4VW-114" value="是" style="text;html=1;align=center;verticalAlign=middle;resizable=0;points=[];autosize=1;" vertex="1" parent="1">
          <mxGeometry x="580" y="2056.71" width="30" height="20" as="geometry"/>
        </mxCell>
        <mxCell id="X6zT1H7bfcrQoG9dF4VW-115" value="是" style="text;html=1;align=center;verticalAlign=middle;resizable=0;points=[];autosize=1;" vertex="1" parent="1">
          <mxGeometry x="580" y="1480" width="30" height="20" as="geometry"/>
        </mxCell>
      </root>
    </mxGraphModel>
  </diagram>
</mxfile>
